HIERARCHY
ROOT root
{
	OFFSET 0.000000 0.000000 0.000000
	CHANNELS 6 Xposition Yposition Zposition Zrotation Yrotation Xrotation
	JOINT lhip
	{
		OFFSET 0.058581 -0.082280 -0.017664
		CHANNELS 3 Zrotation Yrotation Xrotation
		JOINT lknee
		{
			OFFSET 0.043451 -0.386469 0.008037
			CHANNELS 3 Zrotation Yrotation Xrotation
			JOINT lankle
			{
				OFFSET -0.014790 -0.426874 -0.037428
				CHANNELS 3 Zrotation Yrotation Xrotation
				JOINT ltoe
				{
					OFFSET 0.041054 -0.060286 0.122042
					CHANNELS 3 Zrotation Yrotation Xrotation
					End Site
					{
						OFFSET 0.000000 0.000000 0.000000
					}
				}
			}
		}
	}
	JOINT rhip
	{
		OFFSET -0.060310 -0.090513 -0.013543
		CHANNELS 3 Zrotation Yrotation Xrotation
		JOINT rknee
		{
			OFFSET -0.043257 -0.383688 -0.004843
			CHANNELS 3 Zrotation Yrotation Xrotation
			JOINT rankle
			{
				OFFSET 0.019056 -0.420046 -0.034562
				CHANNELS 3 Zrotation Yrotation Xrotation
				JOINT rtoe
				{
					OFFSET -0.034840 -0.062106 0.130323
					CHANNELS 3 Zrotation Yrotation Xrotation
					End Site
					{
						OFFSET 0.000000 0.000000 0.000000
					}
				}
			}
		}
	}
	JOINT lowerback
	{
		OFFSET 0.004439 0.124404 -0.038385
		CHANNELS 3 Zrotation Yrotation Xrotation
		JOINT upperback
		{
			OFFSET 0.004488 0.137956 0.026820
			CHANNELS 3 Zrotation Yrotation Xrotation
			JOINT chest
			{
				OFFSET -0.002265 0.056032 0.002855
				CHANNELS 3 Zrotation Yrotation Xrotation
				JOINT lowerneck
				{
					OFFSET -0.013390 0.211636 -0.033468
					CHANNELS 3 Zrotation Yrotation Xrotation
					JOINT upperneck
					{
						OFFSET 0.010113 0.088937 0.050410
						CHANNELS 3 Zrotation Yrotation Xrotation
						End Site
						{
							OFFSET 0.000000 0.000000 0.000000
						}
					}
				}
				JOINT lclavicle
				{
					OFFSET 0.071702 0.114000 -0.018898
					CHANNELS 3 Zrotation Yrotation Xrotation
					JOINT lshoulder
					{
						OFFSET 0.122921 0.045205 -0.019046
						CHANNELS 3 Zrotation Yrotation Xrotation
						JOINT lelbow
						{
							OFFSET 0.255332 -0.015649 -0.022946
							CHANNELS 3 Zrotation Yrotation Xrotation
							JOINT lwrist
							{
								OFFSET 0.265709 0.012698 -0.007375
								CHANNELS 3 Zrotation Yrotation Xrotation
								End Site
								{
									OFFSET 0.000000 0.000000 0.000000
								}
							}
						}
					}
				}
				JOINT rclavicle
				{
					OFFSET -0.082954 0.112472 -0.023707
					CHANNELS 3 Zrotation Yrotation Xrotation
					JOINT rshoulder
					{
						OFFSET -0.113228 0.046853 -0.008472
						CHANNELS 3 Zrotation Yrotation Xrotation
						JOINT relbow
						{
							OFFSET -0.260127 -0.014369 -0.031269
							CHANNELS 3 Zrotation Yrotation Xrotation
							JOINT rwrist
							{
								OFFSET -0.269108 0.006794 -0.006027
								CHANNELS 3 Zrotation Yrotation Xrotation
								End Site
								{
									OFFSET 0.000000 0.000000 0.000000
								}
							}
						}
					}
				}
			}
		}
	}
}
MOTION
Frames: 13
Frame Time: 0.033333
-1.128546 0.645317 0.552396 87.039331 -0.239421 51.328506 23.962033 10.069928 -49.530611 -7.523709 6.153258 81.860146 -6.304592 -3.833812 -4.616289 0.000000 -0.000000 0.000000 -19.045857 -9.624109 -53.743059 -1.206281 -4.912180 80.644500 4.304576 1.832371 6.352243 0.000000 -0.000000 0.000000 -1.369895 1.606256 59.686865 0.792547 -1.947539 11.093687 2.402919 -0.253040 -7.701800 -2.023551 -0.615859 -10.942935 9.329840 -1.490896 0.515937 -31.611771 -33.627857 5.835773 -27.311075 -15.722033 4.540295 34.397698 -75.224197 -7.912477 -21.398834 -10.491894 13.176784 32.418754 39.913337 14.146786 25.852721 25.414424 -0.526103 -16.456717 65.203245 2.777015 34.751722 8.192502 11.853275 
-1.128863 0.645407 0.552244 87.100305 -0.274318 51.412258 24.032872 9.909159 -49.610607 -7.247165 6.457894 81.912815 -6.006880 -4.359856 -5.026255 0.000000 -0.000000 0.000000 -19.186550 -9.572937 -53.849005 -1.316955 -5.007142 80.721548 4.286065 1.998780 6.241860 0.000000 -0.000000 0.000000 -1.433041 1.506885 59.301070 0.702157 -1.926650 11.557925 2.231264 -0.281669 -7.608672 -2.053272 -0.242821 -12.318549 9.004698 -1.731827 0.543872 -31.133458 -33.628602 5.393898 -27.699415 -15.858412 4.710724 34.867730 -74.656241 -8.434623 -21.590685 -9.804281 12.888800 32.495934 39.940046 14.297273 25.603303 25.758953 -0.513098 -16.466879 64.981130 3.279468 35.235813 8.157611 11.958779 
-1.128976 0.645484 0.552188 87.138799 -0.291187 51.498430 23.996647 9.964941 -49.717978 -7.139911 6.538994 81.951760 -6.375418 -4.588736 -5.598655 0.000000 -0.000000 0.000000 -19.063000 -9.612083 -53.973222 -1.324622 -4.773498 80.754000 4.337964 1.961021 6.306839 0.000000 -0.000000 0.000000 -1.410795 1.459188 59.249563 0.591950 -1.894603 11.473959 2.193829 -0.304969 -7.634392 -2.396730 -0.232180 -12.994033 8.970044 -1.726475 0.081827 -31.247162 -33.570265 5.320565 -27.856478 -15.857245 4.482377 35.571003 -74.591480 -9.190549 -22.780790 -9.154544 12.215293 32.619003 39.888592 14.525376 25.434892 25.814387 -0.680499 -16.198103 65.175246 3.957588 35.824813 7.995582 11.482555 
-1.129226 0.645493 0.552031 87.103278 -0.339820 51.610344 24.101768 10.051618 -49.732358 -7.074424 6.712492 81.866036 -6.310411 -4.491525 -4.885042 0.000000 -0.000000 0.000000 -19.048975 -9.582849 -54.121928 -1.246357 -4.770545 80.707634 4.084851 1.929970 6.351271 0.000000 -0.000000 0.000000 -1.400050 1.519979 59.026150 0.519645 -1.794696 11.809120 2.151650 -0.388690 -7.838623 -2.575062 -0.295850 -13.646576 9.002827 -1.797167 -0.176299 -31.398387 -33.507388 5.392381 -27.717476 -15.712347 4.393861 36.855024 -74.743176 -10.282016 -23.048535 -8.947671 11.594982 32.641621 39.905876 14.551282 25.446524 25.849862 -0.606425 -16.284729 65.307482 4.424424 35.815433 7.736681 11.358865 
-1.129272 0.645387 0.552140 87.143186 -0.245067 51.536284 24.170461 10.058149 -49.690258 -7.226200 6.697598 81.842174 -6.414353 -4.526635 -4.820098 0.000000 -0.000000 0.000000 -19.090921 -9.582388 -53.972971 -1.234422 -4.882913 80.691464 4.182243 1.950811 6.369310 0.000000 -0.000000 0.000000 -1.392593 1.441166 59.160396 0.506759 -1.776452 11.716478 2.111818 -0.430802 -7.716301 -2.608040 -0.306397 -14.193415 8.842171 -2.053341 -0.379976 -31.295976 -33.333710 5.271990 -27.718677 -15.777765 4.393326 36.984539 -74.842939 -10.605575 -22.810296 -8.936855 11.452306 32.583541 39.795949 14.327652 25.792320 26.070238 -0.357491 -16.423349 65.217509 3.966264 35.574629 7.503985 11.624683 
-1.129252 0.645287 0.552055 87.130680 -0.287116 51.602008 24.179241 10.169167 -49.677865 -7.175809 6.741694 81.822559 -6.077951 -4.577657 -4.623484 0.000000 -0.000000 0.000000 -19.154970 -9.514139 -54.036712 -1.312317 -4.937786 80.684524 4.292285 1.935322 6.438579 0.000000 -0.000000 0.000000 -1.472220 1.474665 59.125839 0.462560 -1.780787 11.518839 2.067769 -0.396715 -7.715667 -2.720114 -0.547302 -14.220801 8.887433 -2.094424 -0.942151 -31.489190 -33.149808 5.313432 -27.549876 -15.789628 4.252345 36.813915 -74.958937 -10.804862 -22.779678 -9.119875 11.346852 33.009992 39.615888 14.643931 25.685896 26.245905 -0.585455 -16.319941 65.128748 3.960288 35.817282 7.074839 11.981766 
-1.129301 0.645224 0.552084 87.189204 -0.148826 51.595397 24.164277 10.278350 -49.733845 -7.185409 6.650565 81.826405 -5.751726 -4.331766 -4.296730 0.000000 -0.000000 0.000000 -19.097359 -9.544725 -53.953460 -1.193342 -4.965109 80.695293 4.142929 1.772179 6.230256 0.000000 -0.000000 0.000000 -1.474538 1.433642 59.112507 0.455374 -1.689608 11.632195 2.054865 -0.365052 -7.874277 -2.610298 -0.563036 -14.522359 9.027563 -2.205704 -1.128561 -31.826611 -33.060849 5.221247 -27.352594 -15.769281 4.489764 37.098295 -75.126341 -10.930537 -22.362497 -8.948631 11.618876 33.514440 39.514954 14.744724 24.721528 26.025185 -0.759062 -14.845331 65.303942 5.282013 35.620753 7.700921 11.415818 
-1.129414 0.645398 0.551993 87.151087 -0.233739 51.679487 24.144904 10.448051 -49.784618 -7.436653 6.748916 81.830153 -5.962906 -4.640526 -5.065998 0.000000 -0.000000 0.000000 -19.030574 -9.587449 -54.074947 -1.188469 -4.840916 80.598944 4.213930 1.739054 6.462146 0.000000 -0.000000 0.000000 -1.537674 1.462814 59.040519 0.372342 -1.701736 11.540391 2.018506 -0.304740 -7.821161 -2.562796 -1.389655 -15.117808 9.178956 -2.946881 -1.261903 -31.901315 -32.967029 5.020530 -27.392517 -15.752979 4.459870 37.471307 -75.253854 -11.143730 -22.364924 -8.795965 11.698731 33.495274 39.619398 14.661078 24.899307 25.887830 -0.777185 -15.162075 65.238283 4.942707 36.180906 7.535576 11.188724 
-1.129494 0.645568 0.551886 87.203904 -0.187189 51.633588 24.135627 10.389126 -49.800482 -7.473487 6.752111 81.824658 -6.009494 -4.497974 -4.966251 0.000000 -0.000000 0.000000 -19.144980 -9.687039 -53.989160 -1.066155 -4.944021 80.610862 4.211616 1.831267 6.458808 0.000000 -0.000000 0.000000 -1.502583 1.377297 58.890504 0.362430 -1.737985 11.739607 1.909188 -0.240707 -7.827599 -2.432288 -2.346574 -15.527068 9.366516 -4.316822 -1.218080 -31.957794 -32.964385 5.035767 -27.536123 -15.801549 4.481426 38.443024 -74.929725 -12.291988 -22.503300 -8.607426 11.961948 33.654375 39.692464 14.673085 24.747001 25.737334 -0.923002 -14.921186 65.223435 5.068175 36.186540 7.120403 11.178649 
-1.129776 0.645363 0.551918 87.302890 -0.149011 51.496909 24.230640 10.159635 -49.632477 -7.437190 6.880210 81.693099 -5.842326 -4.364687 -4.390081 0.000000 -0.000000 0.000000 -19.429366 -9.662104 -53.719380 -1.080663 -5.276367 80.579227 4.182873 1.870368 6.351107 0.000000 -0.000000 0.000000 -1.372980 1.611805 58.477603 0.528301 -1.701674 12.813353 1.840614 -0.299332 -8.023922 -1.915708 -4.679547 -16.166863 9.673624 -7.340395 -2.191638 -31.817573 -33.124404 4.877568 -27.655685 -16.298854 4.788937 39.906957 -74.218916 -14.156263 -21.451802 -8.962137 12.424368 33.511311 39.927951 14.109792 24.480054 25.230849 -0.793569 -15.264001 65.198446 4.695614 35.760143 7.592444 11.341162 
-1.129793 0.645217 0.552003 87.325498 -0.120012 51.444750 24.206563 10.167223 -49.597740 -7.437097 6.807701 81.683882 -5.800625 -4.394201 -4.319488 0.000000 -0.000000 0.000000 -19.405426 -9.726266 -53.642889 -1.057000 -5.264186 80.645113 4.014171 1.902159 6.290226 0.000000 -0.000000 0.000000 -1.383294 1.713699 58.435273 0.641296 -1.742542 13.080907 1.789636 -0.315167 -8.389479 -1.299324 -7.326563 -16.435684 9.961205 -10.179488 -2.333131 -32.127203 -33.011735 5.245899 -27.491979 -16.400148 4.494595 40.900002 -74.052993 -15.221781 -22.001670 -8.221157 12.230154 33.688951 40.066968 14.463152 24.845967 24.976927 -0.892265 -16.381204 65.226437 3.329181 35.655292 6.941186 11.283768 
-1.129999 0.645321 0.551866 87.391913 -0.069683 51.461077 24.141826 10.124149 -49.679176 -7.454619 6.796586 81.706994 -5.204010 -4.122349 -4.492306 0.000000 -0.000000 0.000000 -19.363205 -9.899049 -53.615894 -0.893275 -5.240695 80.619310 3.976672 1.732918 6.298627 0.000000 -0.000000 0.000000 -1.412072 1.674244 58.365908 0.631036 -1.716015 13.015971 1.707837 -0.334515 -8.302378 -0.831921 -9.730425 -16.812144 10.562585 -12.434626 -2.524601 -32.388637 -32.830610 5.575180 -27.065243 -16.786056 4.155685 41.244287 -74.177824 -15.787054 -22.778350 -7.523108 12.081109 33.752120 40.258071 14.646864 24.584176 24.669870 -1.077127 -16.390106 65.217250 2.976033 36.122009 7.173662 11.355646 
-1.129657 0.645303 0.551836 87.393459 -0.093842 51.626873 24.093398 10.246847 -49.881835 -7.399938 6.778109 81.816846 -5.631295 -4.166470 -4.378902 0.000000 -0.000000 0.000000 -19.452989 -9.903149 -53.763481 -1.140694 -5.364880 80.679092 4.126921 2.019862 6.222950 0.000000 -0.000000 0.000000 -1.543798 1.829874 58.379998 0.708131 -1.804468 12.530475 1.816280 -0.268111 -8.436116 -0.271286 -12.299888 -15.633809 11.129249 -14.319223 -4.069556 -32.745276 -32.595905 6.262736 -27.354894 -16.792175 4.042425 43.191615 -73.866808 -17.925089 -22.976496 -7.591267 12.047763 33.749324 40.278112 14.669296 24.552339 24.424254 -1.345785 -14.486348 65.402394 4.650859 36.761780 6.514412 10.403681 
